<mxfile host="app.diagrams.net" modified="2021-07-22T12:29:03.736Z" agent="5.0 (Windows NT 10.0; Win64; x64) AppleWebKit/537.36 (KHTML, like Gecko) Chrome/92.0.4515.107 Safari/537.36" etag="tXzLZ--DHXO6QA-KM0Vn" version="14.9.1" type="github">
  <diagram id="C5RBs43oDa-KdzZeNtuy" name="Page-1">
    <mxGraphModel dx="868" dy="460" grid="1" gridSize="10" guides="1" tooltips="1" connect="1" arrows="1" fold="1" page="1" pageScale="1" pageWidth="827" pageHeight="1169" math="0" shadow="0">
      <root>
        <mxCell id="WIyWlLk6GJQsqaUBKTNV-0" />
        <mxCell id="WIyWlLk6GJQsqaUBKTNV-1" parent="WIyWlLk6GJQsqaUBKTNV-0" />
        <mxCell id="Yex9sFvO_9vD0EoeOs-k-32" value="Orgchart" style="swimlane;startSize=20;horizontal=1;containerType=tree;newEdgeStyle={&quot;edgeStyle&quot;:&quot;elbowEdgeStyle&quot;,&quot;startArrow&quot;:&quot;none&quot;,&quot;endArrow&quot;:&quot;none&quot;};" vertex="1" parent="WIyWlLk6GJQsqaUBKTNV-1">
          <mxGeometry x="274" y="70" width="280" height="320" as="geometry">
            <mxRectangle x="274" y="30" width="80" height="20" as="alternateBounds" />
          </mxGeometry>
        </mxCell>
        <mxCell id="Yex9sFvO_9vD0EoeOs-k-33" value="" style="edgeStyle=elbowEdgeStyle;elbow=vertical;startArrow=none;endArrow=none;rounded=0;" edge="1" parent="Yex9sFvO_9vD0EoeOs-k-32" source="Yex9sFvO_9vD0EoeOs-k-35" target="Yex9sFvO_9vD0EoeOs-k-36">
          <mxGeometry relative="1" as="geometry" />
        </mxCell>
        <mxCell id="Yex9sFvO_9vD0EoeOs-k-34" value="" style="edgeStyle=elbowEdgeStyle;elbow=vertical;startArrow=none;endArrow=none;rounded=0;" edge="1" parent="Yex9sFvO_9vD0EoeOs-k-32" source="Yex9sFvO_9vD0EoeOs-k-35" target="Yex9sFvO_9vD0EoeOs-k-37">
          <mxGeometry relative="1" as="geometry" />
        </mxCell>
        <UserObject label="Usuário" treeRoot="1" id="Yex9sFvO_9vD0EoeOs-k-35">
          <mxCell style="whiteSpace=wrap;html=1;align=center;treeFolding=1;treeMoving=1;newEdgeStyle={&quot;edgeStyle&quot;:&quot;elbowEdgeStyle&quot;,&quot;startArrow&quot;:&quot;none&quot;,&quot;endArrow&quot;:&quot;none&quot;};" vertex="1" parent="Yex9sFvO_9vD0EoeOs-k-32">
            <mxGeometry x="80" y="40" width="120" height="60" as="geometry" />
          </mxCell>
        </UserObject>
        <mxCell id="Yex9sFvO_9vD0EoeOs-k-36" value="Amigos" style="whiteSpace=wrap;html=1;align=center;verticalAlign=middle;treeFolding=1;treeMoving=1;newEdgeStyle={&quot;edgeStyle&quot;:&quot;elbowEdgeStyle&quot;,&quot;startArrow&quot;:&quot;none&quot;,&quot;endArrow&quot;:&quot;none&quot;};" vertex="1" parent="Yex9sFvO_9vD0EoeOs-k-32">
          <mxGeometry x="20" y="140" width="100" height="60" as="geometry" />
        </mxCell>
        <mxCell id="Yex9sFvO_9vD0EoeOs-k-37" value="Playlist" style="whiteSpace=wrap;html=1;align=center;verticalAlign=middle;treeFolding=1;treeMoving=1;newEdgeStyle={&quot;edgeStyle&quot;:&quot;elbowEdgeStyle&quot;,&quot;startArrow&quot;:&quot;none&quot;,&quot;endArrow&quot;:&quot;none&quot;};" vertex="1" parent="Yex9sFvO_9vD0EoeOs-k-32">
          <mxGeometry x="160" y="140" width="100" height="60" as="geometry" />
        </mxCell>
        <mxCell id="Yex9sFvO_9vD0EoeOs-k-42" value="" style="edgeStyle=elbowEdgeStyle;elbow=vertical;startArrow=none;endArrow=none;rounded=0;" edge="1" target="Yex9sFvO_9vD0EoeOs-k-43" source="Yex9sFvO_9vD0EoeOs-k-37" parent="Yex9sFvO_9vD0EoeOs-k-32">
          <mxGeometry relative="1" as="geometry">
            <mxPoint x="414" y="150" as="sourcePoint" />
          </mxGeometry>
        </mxCell>
        <mxCell id="Yex9sFvO_9vD0EoeOs-k-43" value="Música" style="whiteSpace=wrap;html=1;align=center;verticalAlign=middle;treeFolding=1;treeMoving=1;newEdgeStyle={&quot;edgeStyle&quot;:&quot;elbowEdgeStyle&quot;,&quot;startArrow&quot;:&quot;none&quot;,&quot;endArrow&quot;:&quot;none&quot;};" vertex="1" parent="Yex9sFvO_9vD0EoeOs-k-32">
          <mxGeometry x="160" y="240" width="100" height="60" as="geometry" />
        </mxCell>
      </root>
    </mxGraphModel>
  </diagram>
</mxfile>
